<?xml version="1.0" standalone="no"?>
<!DOCTYPE svg PUBLIC "-//W3C//DTD SVG 20010904//EN"
 "http://www.w3.org/TR/2001/REC-SVG-20010904/DTD/svg10.dtd">
<svg version="1.0" xmlns="http://www.w3.org/2000/svg"
 width="512.000000pt" height="512.000000pt" viewBox="0 0 512.000000 512.000000"
 preserveAspectRatio="xMidYMid meet">
<metadata>
Created by potrace 1.11, written by Peter Selinger 2001-2013
</metadata>
<g transform="translate(0.000000,512.000000) scale(0.100000,-0.100000)"
fill="#000000" stroke="none">
<path d="M2557 5103 c-3 -5 -41 -89 -85 -188 -44 -99 -118 -259 -165 -355
-160 -332 -205 -426 -312 -645 -59 -121 -111 -231 -116 -244 -6 -14 -13 -21
-19 -15 -7 8 -188 421 -257 589 -27 64 -73 168 -77 173 -3 2 -36 -12 -161 -68
-22 -10 -89 -39 -150 -65 -60 -26 -132 -57 -160 -70 -27 -12 -84 -37 -125 -55
-41 -18 -93 -40 -115 -50 -22 -10 -43 -17 -46 -17 -3 1 -13 -4 -21 -11 -14
-11 -13 -18 7 -60 44 -92 46 -87 -47 -130 -46 -22 -153 -73 -238 -115 -85 -41
-194 -93 -242 -116 l-88 -41 19 -48 c10 -26 132 -329 270 -674 138 -345 251
-630 251 -633 0 -3 8 -25 19 -48 10 -23 53 -130 96 -237 43 -107 83 -208 90
-225 7 -16 34 -84 60 -150 54 -139 58 -148 78 -195 8 -19 63 -156 122 -305 59
-148 111 -279 115 -290 5 -11 19 -45 31 -75 12 -30 27 -68 34 -85 7 -16 34
-84 60 -150 25 -66 55 -139 66 -162 10 -24 19 -47 19 -53 0 -6 4 -18 9 -28 13
-24 34 -74 72 -170 18 -46 35 -79 40 -75 11 12 109 236 109 250 0 7 5 13 10
13 6 0 10 6 10 14 0 11 22 64 75 181 7 17 22 50 33 75 11 25 32 72 47 105 45
102 51 114 143 325 49 113 99 225 110 250 11 25 41 93 65 150 25 58 58 134 74
170 51 112 158 355 158 360 1 3 15 34 31 70 17 36 46 102 65 147 19 45 36 83
39 83 6 0 59 -120 263 -585 120 -274 258 -587 277 -630 10 -22 50 -114 90
-205 40 -91 83 -187 95 -215 12 -27 73 -166 135 -308 62 -142 116 -254 121
-250 4 4 104 253 223 553 119 300 221 554 226 565 5 11 37 90 70 175 75 190
109 276 126 315 6 17 60 152 119 300 59 149 112 281 118 295 5 14 11 30 13 35
2 10 215 545 239 600 17 41 239 599 241 605 0 3 5 16 11 30 6 14 20 48 32 77
l20 52 -72 35 c-39 19 -144 69 -232 111 -88 43 -197 95 -242 116 l-83 38 35
76 34 75 -27 14 c-15 7 -133 59 -262 116 -260 113 -269 117 -355 155 -107 49
-148 66 -150 63 -7 -12 -55 -116 -55 -121 0 -3 -15 -39 -34 -79 -37 -81 -45
-100 -106 -238 -22 -52 -45 -102 -51 -110 -5 -8 -12 -22 -15 -30 -15 -37 -24
-59 -48 -113 -14 -32 -26 -62 -26 -67 0 -28 -21 -2 -50 63 -19 39 -67 142
-108 227 -80 166 -142 297 -202 425 -21 44 -61 128 -89 188 -91 190 -147 309
-204 430 -51 107 -68 130 -80 110z"/>
</g>
</svg>
