<svg id="レイヤー_1" data-name="レイヤー 1" xmlns="http://www.w3.org/2000/svg" xmlns:xlink="http://www.w3.org/1999/xlink" viewBox="0 0 324.7988 80.0513"><defs><clipPath id="clip-path" transform="translate(0 0.1216)"><rect width="80" height="80" style="fill:none"/></clipPath></defs><title>NapoanDotComLogo</title><g style="clip-path:url(#clip-path)"><polygon points="0 0.121 0 30.121 10 30.121 10 20.121 20 20.121 20 10.121 60 10.121 60 20.121 70 20.121 70 30.121 80 30.121 80 0.121 0 0.121"/><rect x="20" y="30.1216" width="10" height="20"/><polyline points="50 30.122 50 50.122 60 50.122 60 30.122"/><polyline points="20 60.122 20 70.122 60 70.122 60 60.122"/></g><path d="M91.9658,79.4766c-5.0615,0-9.28-4.5352-9.28-9.9786,0-5.4414,4.2183-9.9775,9.28-9.9775s9.28,4.5361,9.28,9.9775C101.2461,74.9414,97.0278,79.4766,91.9658,79.4766Z" transform="translate(0 0.1216)"/><path d="M161.6694,53.2842l-2.1089,20.75C154.3936,77.3223,145.957,79.59,137.626,79.59c-21.09,0-35.7486-13.4921-35.7486-39.5722,0-26.646,18.4546-39.7988,36.2759-39.7988A41.7383,41.7383,0,0,1,158.19,5.2075l2.4257,21.544h-2.6367l-2.8472-5.8965C150.07,10.31,144.9023,4.187,137.31,4.187c-9.9126,0-16.7671,10.9985-16.7671,33.45,0,24.9453,6.5381,37.9844,17.3994,37.9844,7.6982,0,11.811-4.9883,18.1382-16.668l3.0581-5.6689Z" transform="translate(0 0.1216)"/><path d="M201.4219,79.93c-20.3526,0-34.5889-16.44-34.5889-40.1387,0-23.2446,13.0762-39.9126,34.5889-39.9126,20.3525,0,34.5888,16.4414,34.5888,40.1392C236.0107,63.2617,222.9341,79.93,201.4219,79.93Zm-1.793-76.1963c-10.7559,0-14.2358,13.2666-14.2358,32.8828,0,21.7705,6.1162,39.459,17.8213,39.459,10.6508,0,14.1308-13.2666,14.1308-32.8818C217.3452,21.4224,211.3345,3.7334,199.6289,3.7334Z" transform="translate(0 0.1216)"/><path d="M324.7988,78.7969c-1.8984,0-13.1816-.2266-16.6621-.2266-3.5849,0-15.7119.2266-17.5049.2266V76.6426l3.2686-.794c5.59-1.36,6.1162-3.0615,5.4844-18.5957l-1.5821-37.9853L276.501,79.1367h-2.6367L252.1416,19.2676,250.876,55.4385c-.5274,16.2138.3164,18.8222,7.8037,20.8633l.8428.2275v2.2676c-1.8975,0-8.752-.2266-12.2325-.2266-3.374,0-9.3847.2266-11.4941.2266V76.5293l.6328-.1133c6.749-1.248,8.3311-5.2168,9.1748-20.8642L247.29,24.71c.8438-16.3281-.9492-19.2758-6.3271-20.6367L237.9053,3.28V1.0122c1.8974,0,8.6465.2271,12.0215.2271,3.0576,0,9.8066,0,12.3378-.2271l18.56,53.4058L299.2793,1.0122c1.792.1133,6.749.2271,8.541.2271,3.586,0,12.6543-.1138,15.08-.2271V3.28l-3.2686.7934c-5.6953,1.3609-6.2226,3.9688-5.59,20.8633l1.2656,32.4292c.6328,15.0811,1.6875,17.4619,7.3819,18.709l2.1093.4541Z" transform="translate(0 0.1216)"/></svg>