<svg data-name="レイヤー 1" xmlns="http://www.w3.org/2000/svg" viewBox="0 0 322 80">
  <defs>
    <clipPath id="a">
      <path fill="none" d="M0 0h80v80H0z"/>
    </clipPath>
  </defs>
  <g clip-path="url(#a)">
    <path d="M0 0v30h10V20h10V10h40v10h10v10h10V0H0zM20 30h10v20H20zM50 30v20h10V30M20 60v10h40V60"/>
  </g>
  <path d="M92 80c-5 0-9-5-9-10 0-6 4-10 9-10s9 4 9 10c0 5-4 10-9 10zM162 53l-2 21c-6 3-14 6-22 6-21 0-36-14-36-40 0-27 18-40 36-40a42 42 0 0 1 20 5l3 22h-3l-3-6c-5-11-10-17-18-17-10 0-16 11-16 34 0 25 6 38 17 38 8 0 12-5 18-17l3-6zM201 80c-20 0-34-16-34-40 0-23 13-40 34-40s35 16 35 40c0 23-13 40-35 40zm-1-76c-11 0-15 13-15 33 0 22 7 39 18 39s14-13 14-33c0-21-6-39-17-39z"/>
  <path d="M322 79h-34v-2l3-1c6-1 7-3 6-19l-2-38-21 60h-3l-21-60-2 37c0 16 1 18 8 20l1 1v2h-24v-2h1c7-2 8-6 9-21l2-31c1-16-1-19-6-21l-4-1V1h25l18 54 19-54a215 215 0 0 0 23 0v2l-3 1c-5 2-6 4-5 21l1 32c1 16 2 18 7 19l2 1z"/>
</svg>
